<svg xmlns="http://www.w3.org/2000/svg" width="512" height="512" viewBox="0 0 512 512" role="img" aria-labelledby="title desc">
  <title id="title">CHUBI GOLD splash icon</title>
  <desc id="desc">Retro RPG style gold and burgundy icon with a funny Chubaka mascot, sombrero, beer mug, and pixel frame.</desc>
  <defs>
    <linearGradient id="bg" x1="0" x2="1" y1="0" y2="1">
      <stop offset="0" stop-color="#210906"/>
      <stop offset="0.55" stop-color="#3a0f0a"/>
      <stop offset="1" stop-color="#130605"/>
    </linearGradient>
    <linearGradient id="gold" x1="0" x2="0" y1="0" y2="1">
      <stop offset="0" stop-color="#fff0a5"/>
      <stop offset="0.35" stop-color="#e9aa2b"/>
      <stop offset="0.7" stop-color="#a85d12"/>
      <stop offset="1" stop-color="#ffd76c"/>
    </linearGradient>
    <linearGradient id="fur" x1="0" x2="1" y1="0" y2="1">
      <stop offset="0" stop-color="#d78a2f"/>
      <stop offset="0.55" stop-color="#8f4b18"/>
      <stop offset="1" stop-color="#4b230e"/>
    </linearGradient>
    <filter id="shadow" x="-20%" y="-20%" width="140%" height="150%">
      <feDropShadow dx="0" dy="10" stdDeviation="8" flood-color="#000" flood-opacity="0.45"/>
    </filter>
  </defs>

  <rect width="512" height="512" rx="78" fill="url(#bg)"/>
  <rect x="20" y="20" width="472" height="472" rx="60" fill="none" stroke="#5b1b10" stroke-width="14"/>
  <rect x="32" y="32" width="448" height="448" rx="48" fill="none" stroke="url(#gold)" stroke-width="8"/>

  <g opacity="0.28" fill="#e09b31">
    <path d="M82 117h18v18h-18zM100 135h18v18h-18zM82 153h18v18h-18zM64 135h18v18H64z"/>
    <path d="M394 88h18v18h-18zM412 106h18v18h-18zM394 124h18v18h-18zM376 106h18v18h-18z"/>
    <path d="M393 363h18v18h-18zM411 381h18v18h-18zM393 399h18v18h-18zM375 381h18v18h-18z"/>
    <path d="M101 375h18v18h-18zM119 393h18v18h-18zM101 411h18v18h-18zM83 393h18v18H83z"/>
  </g>

  <g filter="url(#shadow)">
    <path d="M125 181c16-54 64-89 131-89s115 35 131 89" fill="none" stroke="#2b0a05" stroke-width="58" stroke-linecap="round"/>
    <path d="M123 183c17-49 65-77 133-77s116 28 133 77" fill="none" stroke="url(#gold)" stroke-width="45" stroke-linecap="round"/>
    <path d="M132 184c31-20 74-31 124-31s93 11 124 31" fill="none" stroke="#1a0704" stroke-width="18" stroke-linecap="round"/>
    <path d="M158 155c29-21 63-32 98-32s69 11 98 32" fill="none" stroke="#c32616" stroke-width="15" stroke-linecap="round"/>
    <path d="M194 137l20 23 20-23 20 23 20-23 20 23 20-23" fill="none" stroke="#15906c" stroke-width="9" stroke-linecap="round" stroke-linejoin="round"/>

    <path d="M155 247c0-72 45-124 101-124s101 52 101 124c0 78-45 137-101 137s-101-59-101-137z" fill="url(#fur)" stroke="#1a0704" stroke-width="9"/>
    <path d="M183 241c-35-5-57 17-64 50 39 3 65-12 78-43z" fill="#7a3b14" stroke="#1a0704" stroke-width="7"/>
    <path d="M329 241c35-5 57 17 64 50-39 3-65-12-78-43z" fill="#7a3b14" stroke="#1a0704" stroke-width="7"/>

    <path d="M187 277c23 11 45 16 69 16s46-5 69-16c-9 55-35 88-69 88s-60-33-69-88z" fill="#5b2a10" opacity="0.55"/>
    <circle cx="220" cy="232" r="13" fill="#100604"/>
    <circle cx="292" cy="232" r="13" fill="#100604"/>
    <circle cx="225" cy="227" r="4" fill="#fff3bc"/>
    <circle cx="297" cy="227" r="4" fill="#fff3bc"/>
    <path d="M238 260c10 8 26 8 36 0" fill="none" stroke="#160704" stroke-width="9" stroke-linecap="round"/>
    <path d="M215 289c26 26 56 26 82 0" fill="none" stroke="#160704" stroke-width="11" stroke-linecap="round"/>
    <path d="M231 292c16 11 34 11 50 0" fill="none" stroke="#ffd3a2" stroke-width="6" stroke-linecap="round"/>

    <path d="M184 213c19-26 44-39 72-39s53 13 72 39" fill="none" stroke="#e0a44b" stroke-width="10" stroke-linecap="round" opacity="0.8"/>
    <path d="M174 325c26 20 53 30 82 30s56-10 82-30" fill="none" stroke="#d08b2d" stroke-width="13" stroke-linecap="round" opacity="0.65"/>

    <g transform="translate(337 265) rotate(-8)">
      <rect x="0" y="0" width="58" height="70" rx="9" fill="#d78a20" stroke="#1a0704" stroke-width="7"/>
      <rect x="10" y="-11" width="38" height="16" rx="8" fill="#fff2c0" stroke="#1a0704" stroke-width="5"/>
      <path d="M58 18c23 0 23 34 0 34" fill="none" stroke="#1a0704" stroke-width="10" stroke-linecap="round"/>
      <path d="M58 24c12 0 12 22 0 22" fill="none" stroke="#ffd76c" stroke-width="5" stroke-linecap="round"/>
      <path d="M14 10v45M31 10v45M48 10v45" stroke="#ffde7a" stroke-width="5" opacity="0.65"/>
    </g>
  </g>

  <g>
    <rect x="116" y="394" width="280" height="58" rx="12" fill="#180604" stroke="#1a0704" stroke-width="10"/>
    <rect x="124" y="402" width="264" height="42" rx="7" fill="url(#gold)"/>
    <text x="256" y="433" text-anchor="middle" font-family="Verdana, Arial, sans-serif" font-size="28" font-weight="900" letter-spacing="1" fill="#3b1007">CHUBI GOLD</text>
  </g>

  <g fill="url(#gold)">
    <path d="M52 52h54v16H68v38H52z"/>
    <path d="M460 52v54h-16V68h-38V52z"/>
    <path d="M52 460v-54h16v38h38v16z"/>
    <path d="M460 460h-54v-16h38v-38h16z"/>
  </g>
</svg>
